<svg width="24" height="24" viewBox="0 0 24 24" fill="none" xmlns="http://www.w3.org/2000/svg">
<path d="M12 24C18.6274 24 24 18.6274 24 12C24 5.37258 18.6274 0 12 0C5.37258 0 0 5.37258 0 12C0 18.6274 5.37258 24 12 24Z" fill="#012169"/>
<path d="M21.2463 4.35278L11.9999 9.90078L2.75354 4.35278C1.9845 5.28273 1.36039 6.32355 0.902344 7.43998L8.50234 12L0.902344 16.56C1.36004 17.6767 1.98389 18.7178 2.75274 19.648L11.9999 14.0992L21.2471 19.6472C22.016 18.717 22.6398 17.6759 23.0975 16.5592L15.4975 11.9992L23.0975 7.43918C22.6394 6.32303 22.0153 5.28249 21.2463 4.35278Z" fill="white"/>
<path d="M2.39061 19.1657L13.1658 12.7001L22.2794 18.1681C22.4861 17.8244 22.6754 17.4707 22.8466 17.1081L13.1666 11.3001L22.2794 5.83287C22.0719 5.48834 21.8487 5.15554 21.6098 4.83447L10.8338 11.3001L1.72021 5.83287C1.51488 6.17527 1.32608 6.52834 1.15381 6.89207L10.8338 12.7001L1.72021 18.1681C1.92687 18.5116 2.15062 18.8445 2.39061 19.1657Z" fill="#C8102E"/>
<path d="M15 0.393604C13.0344 -0.131201 10.9656 -0.131201 9.00001 0.393604V9.00001H0.393604C-0.131201 10.9656 -0.131201 13.0344 0.393604 15H9.00001V23.6064C10.9656 24.1312 13.0344 24.1312 15 23.6064V15H23.6064C24.1312 13.0344 24.1312 10.9656 23.6064 9.00001H15V0.393604Z" fill="white"/>
<path d="M13.8 0.1496C13.2046 0.0546811 12.6029 0.00467342 12 0C11.3971 0.00467342 10.7954 0.0546811 10.2 0.1496V10.2H0.1496C0.0546811 10.7954 0.00467342 11.3971 0 12C0.00467342 12.6029 0.0546811 13.2046 0.1496 13.8H10.2V23.8504C10.7954 23.9453 11.3971 23.9953 12 24C12.6029 23.9953 13.2046 23.9453 13.8 23.8504V13.8H23.8504C23.9453 13.2046 23.9953 12.6029 24 12C23.9953 11.3971 23.9453 10.7954 23.8504 10.2H13.8V0.1496Z" fill="#C8102E"/>
</svg>
