<svg width="50" height="50" viewBox="0 0 50 50" fill="none" xmlns="http://www.w3.org/2000/svg">
<g id="basil:instagram-outline">
<path id="Vector" d="M33.3333 14.5833C33.3333 14.0308 33.5527 13.5009 33.9434 13.1102C34.3341 12.7195 34.8641 12.5 35.4166 12.5C35.9691 12.5 36.499 12.7195 36.8897 13.1102C37.2804 13.5009 37.4999 14.0308 37.4999 14.5833C37.4999 15.1359 37.2804 15.6658 36.8897 16.0565C36.499 16.4472 35.9691 16.6667 35.4166 16.6667C34.8641 16.6667 34.3341 16.4472 33.9434 16.0565C33.5527 15.6658 33.3333 15.1359 33.3333 14.5833Z" fill="#BEBFC1"/>
<path id="Vector_2" fill-rule="evenodd" clip-rule="evenodd" d="M25.0001 15.1042C22.3755 15.1042 19.8585 16.1468 18.0027 18.0027C16.1468 19.8585 15.1042 22.3755 15.1042 25.0001C15.1042 27.6246 16.1468 30.1417 18.0027 31.9975C19.8585 33.8533 22.3755 34.8959 25.0001 34.8959C27.6246 34.8959 30.1417 33.8533 31.9975 31.9975C33.8533 30.1417 34.8959 27.6246 34.8959 25.0001C34.8959 22.3755 33.8533 19.8585 31.9975 18.0027C30.1417 16.1468 27.6246 15.1042 25.0001 15.1042ZM18.2292 25.0001C18.2292 23.2043 18.9426 21.4822 20.2124 20.2124C21.4822 18.9426 23.2043 18.2292 25.0001 18.2292C26.7958 18.2292 28.518 18.9426 29.7878 20.2124C31.0576 21.4822 31.7709 23.2043 31.7709 25.0001C31.7709 26.7958 31.0576 28.518 29.7878 29.7878C28.518 31.0576 26.7958 31.7709 25.0001 31.7709C23.2043 31.7709 21.4822 31.0576 20.2124 29.7878C18.9426 28.518 18.2292 26.7958 18.2292 25.0001Z" fill="#BEBFC1"/>
<path id="Vector_3" fill-rule="evenodd" clip-rule="evenodd" d="M35.9542 5.90219C28.6738 5.0951 21.3264 5.0951 14.0459 5.90219C9.85424 6.37094 6.46883 9.67303 5.97716 13.8855C5.11341 21.2701 5.11341 28.7301 5.97716 36.1147C6.46883 40.3272 9.85216 43.6293 14.0459 44.098C21.3264 44.9043 28.6737 44.9043 35.9542 44.098C40.1459 43.6293 43.5313 40.3272 44.023 36.1147C44.8869 28.7302 44.8869 21.2701 44.023 13.8855C43.5313 9.67303 40.148 6.37094 35.9542 5.90219ZM14.3917 9.00636C21.4424 8.22484 28.5578 8.22484 35.6084 9.00636C38.3792 9.31886 40.598 11.5043 40.9209 14.2501C41.7562 21.3924 41.7562 28.6078 40.9209 35.7501C40.7539 37.0939 40.1387 38.3422 39.1748 39.2933C38.2108 40.2444 36.9544 40.8428 35.6084 40.9918C28.5578 41.7733 21.4424 41.7733 14.3917 40.9918C13.0458 40.8428 11.7894 40.2444 10.8254 39.2933C9.86145 38.3422 9.24627 37.0939 9.07924 35.7501C8.24393 28.6078 8.24393 21.3924 9.07924 14.2501C9.24627 12.9063 9.86145 11.658 10.8254 10.7069C11.7894 9.75579 13.0458 9.15534 14.3917 9.00636Z" fill="#BEBFC1"/>
</g>
</svg>
