<svg width="25" height="25" viewBox="0 0 25 25" fill="none" xmlns="http://www.w3.org/2000/svg">
<path id="Vector" fill-rule="evenodd" clip-rule="evenodd" d="M25 16.0714C25 16.545 24.8354 16.9992 24.5424 17.3341C24.2493 17.669 23.8519 17.8571 23.4375 17.8571L7.33125 17.8571C6.91685 17.8571 6.51942 17.669 6.22639 17.3341C5.93337 16.9992 5.76875 16.545 5.76875 16.0714C5.76875 15.5978 5.93337 15.1436 6.22639 14.8087C6.51942 14.4739 6.91685 14.2857 7.33125 14.2857L23.4375 14.2857C23.8519 14.2857 24.2493 14.4739 24.5424 14.8087C24.8354 15.1436 25 15.5978 25 16.0714ZM25 23.2143C25 23.6879 24.8354 24.1421 24.5424 24.477C24.2493 24.8119 23.8519 25 23.4375 25L1.5625 25C1.1481 25 0.750669 24.8119 0.457645 24.477C0.164619 24.1421 -3.03763e-07 23.6879 -4.13404e-07 23.2143C-5.23046e-07 22.7407 0.164619 22.2865 0.457645 21.9516C0.750669 21.6167 1.1481 21.4286 1.5625 21.4286L23.4375 21.4286C23.8519 21.4286 24.2493 21.6167 24.5424 21.9516C24.8354 22.2865 25 22.7407 25 23.2143ZM25 8.92857C25 9.40217 24.8354 9.85638 24.5424 10.1913C24.2493 10.5261 23.8519 10.7143 23.4375 10.7143L1.5625 10.7143C1.1481 10.7143 0.750666 10.5261 0.457642 10.1913C0.164616 9.85638 -3.611e-06 9.40217 -3.72064e-06 8.92857C-3.83028e-06 8.45497 0.164616 8.00077 0.457641 7.66588C0.750665 7.331 1.1481 7.14286 1.5625 7.14286L23.4375 7.14286C23.8519 7.14286 24.2493 7.331 24.5424 7.66588C24.8354 8.00077 25 8.45497 25 8.92857ZM25 1.78572C25 2.25932 24.8354 2.71352 24.5423 3.0484C24.2493 3.38329 23.8519 3.57143 23.4375 3.57143L7.33125 3.57143C6.91684 3.57143 6.51942 3.38329 6.22639 3.04841C5.93336 2.71352 5.76875 2.25932 5.76875 1.78572C5.76875 1.31211 5.93336 0.857909 6.22639 0.523022C6.51941 0.188136 6.91684 5.96981e-07 7.33125 5.833e-07L23.4375 5.1583e-08C23.8519 3.79023e-08 24.2493 0.188135 24.5423 0.523022C24.8354 0.857908 25 1.31211 25 1.78572Z" fill="#BEBFC1"/>
</svg>
